<svg width="2500" height="500" viewBox="0 0 2500 500" fill="none" xmlns="http://www.w3.org/2000/svg">
<path fill-rule="evenodd" clip-rule="evenodd" d="M566.895 374.25L648.06 125.438H770.65L853.203 374.25H759.846L744.322 329.427H670.978L655.401 374.25H566.895ZM709.614 180.547L674.194 279.13H742.233L709.614 180.547ZM1605.32 374.354L1686.48 125.542H1809.06L1891.64 374.354H1798.27L1782.77 329.531H1709.41L1693.84 374.354H1605.32V374.354ZM1748.04 180.651L1712.63 279.234H1780.67L1748.04 180.651V180.651ZM874.538 374.25V125.438H1051.02C1070.94 125.438 1087.15 132.546 1099.91 141.261C1112.64 149.951 1123.57 161.17 1127.93 176.435C1134.11 198.082 1132.74 215.5 1128.63 227.433C1124.5 239.378 1117.33 249.403 1107.1 257.432C1096.87 265.46 1088.33 271.776 1069.2 276.368C1076.58 283.877 1076.52 284.175 1085.23 290.349C1097.1 298.74 1108.05 299.934 1148.64 300.102L1218.44 300.128V374.25L1148.16 374.432C1071.67 374.626 1044.74 374.03 1030.08 360.878C1011.65 344.355 991.616 324.991 963.77 292.074V374.25H874.538V374.25ZM963.757 187.434V233.321H1025.95C1029.27 233.321 1032.9 232.089 1036.75 229.611C1040.6 227.147 1042.7 220.909 1042.94 210.909C1042.35 201.376 1040.02 195.086 1036 192.025C1031.97 188.977 1028.53 187.434 1025.84 187.434H963.757ZM2453.24 125.542H2271.16C2239.72 125.542 2221.01 140.898 2215.08 171.714C2209.18 202.466 2226.05 236.239 2265.74 272.995C2289.79 292.126 2285.62 301.179 2253.41 300.232H2211.07V300.128L2188.63 300.102C2148.03 299.934 2137.08 298.753 2125.23 290.349C2116.51 284.162 2116.56 283.877 2109.19 276.368C2128.33 271.776 2136.86 265.46 2147.09 257.432C2157.33 249.403 2164.52 239.378 2168.62 227.433C2172.72 215.5 2174.1 198.082 2167.91 176.435C2163.55 161.17 2152.63 149.951 2139.92 141.261C2127.16 132.546 2110.95 125.438 2091.02 125.438H1914.54V374.25H2003.76V292.074C2031.6 324.991 2051.63 344.355 2070.08 360.878C2084.72 374.03 2111.65 375.028 2188.15 374.432L2201.42 374.328V374.354H2332.72C2368.23 368.349 2386.4 349.997 2387.1 319.181C2387.73 288.416 2369.95 256.329 2332.72 224.073C2312.38 206.46 2316.43 199.599 2345.71 199.599H2453.24V125.542ZM2003.76 187.434V233.321H2065.95C2069.3 233.321 2072.89 232.089 2076.74 229.611C2080.6 227.147 2082.7 220.909 2082.93 210.909C2082.35 201.376 2080.01 195.086 2075.99 192.025C2071.96 188.977 2068.55 187.434 2065.86 187.434H2003.76V187.434ZM222.768 125.438C191.317 125.438 172.653 140.795 166.7 171.611C160.799 202.375 176.7 237.251 217.334 272.892C240.433 293.15 237.23 300.128 205.026 300.128H26.7563V374.25H284.323C320.353 374.25 338.044 349.88 338.705 319.077C339.367 288.326 321.261 256.615 284.323 223.97C263.675 206.733 268.046 198.614 297.332 199.509H407.86V374.263H488.143V199.496H600.227V125.438H222.768ZM1400.2 125.438L1378.12 199.366L1353.62 125.438H1261.53L1342.69 374.25H1422.21L1449.45 291.127L1476.66 374.25H1556.18L1637.34 125.438H1545.26L1520.76 199.366L1498.67 125.438H1400.2Z" fill="#FCE51E"/>
</svg>
